<?xml version="1.0" encoding="utf-8"?>
<!-- Generator: Adobe Illustrator 20.0.0, SVG Export Plug-In . SVG Version: 6.00 Build 0)  -->
<svg version="1.1" id="Layer_1" xmlns="http://www.w3.org/2000/svg" xmlns:xlink="http://www.w3.org/1999/xlink" x="0px" y="0px"
	 viewBox="0 0 800 800" style="enable-background:new 0 0 800 800;" xml:space="preserve">
<style type="text/css">
	.st0{fill:url(#SVGID_1_);}
	.st1{fill:url(#SVGID_2_);}
	.st2{fill:#762146;}
	.st3{fill:url(#SVGID_3_);}
	.st4{fill:url(#SVGID_4_);}
</style>
<g>
	
		<image style="overflow:visible;opacity:0.75;" width="3210" height="1762" xlink:href="9363F378F83511EA.png"  transform="matrix(0.24 0 0 0.24 -11 207.5)">
	</image>
	<g>
		<linearGradient id="SVGID_1_" gradientUnits="userSpaceOnUse" x1="-4.3502" y1="409.7447" x2="758.6471" y2="426.7447">
			<stop  offset="0.6317" style="stop-color:#ED1173"/>
			<stop  offset="0.6807" style="stop-color:#E5106F"/>
			<stop  offset="0.7572" style="stop-color:#CF0F64"/>
			<stop  offset="0.8517" style="stop-color:#AA0C53"/>
			<stop  offset="0.9596" style="stop-color:#78093B"/>
			<stop  offset="0.9624" style="stop-color:#77093A"/>
			<stop  offset="0.9973" style="stop-color:#77093A"/>
		</linearGradient>
		<path class="st0" d="M0,214.5v404.7h698.2c0,0,40.8,1.5,51.3-25.5c0,0-11.5-336.5,2.8-376.5L0,214.5z"/>
	</g>
</g>
<linearGradient id="SVGID_2_" gradientUnits="userSpaceOnUse" x1="471.1708" y1="346.6483" x2="543.6068" y2="346.6483" gradientTransform="matrix(-0.9549 0 0 -1 1162.421 739.5137)">
	<stop  offset="0" style="stop-color:#77093A"/>
	<stop  offset="0.3575" style="stop-color:#ED1173"/>
	<stop  offset="0.707" style="stop-color:#F160A1"/>
	<stop  offset="1" style="stop-color:#F59FC5"/>
</linearGradient>
<path class="st1" d="M712.5,189.6c-0.7,131-1.3,262-2,393c0,3.5-2.4,7-7.3,9.6c-5.9,3.1-13.7,4.9-22,4.9c-0.4,0-0.8,0-1.2,0
	c-8.9-0.2-17.3-2.2-23.7-5.7c-8.1-4.4-8.1-4.4-13-9.4c0-0.2,0.1-7.2,0.1-7.3c0,0,4.7-87.5,4.5-180.4c-0.1-21.1,0.3-61.2-0.2-100.4
	c-0.7-52.3-2.2-102.8-2.2-102.8c-0.2,1.5-0.4-3.5-0.4-2.1c0.2,6,5,5,13.1,9.4c6.4,3.5,14.8,5.5,23.7,5.7c0.4,0,0.8,0,1.2,0
	c8.4,0,16.2-1.7,22-4.9C710.1,196.6,712.5,193.1,712.5,189.6z"/>
<path class="st2" d="M670.1,584c2.6,1.3,6,2.1,9.9,2.1c3.4,0,6.6-0.6,9-1.8l2.1-393c-2.4,1.2-5.5,1.8-9,1.8
	c-3.9-0.1-7.3-0.8-9.9-2.1c-3.5-1.8-5.2-4.1-5.2-6.5l-2.1,393C664.9,579.9,666.6,582.2,670.1,584z"/>
<linearGradient id="SVGID_3_" gradientUnits="userSpaceOnUse" x1="471.3957" y1="361.2462" x2="521.581" y2="361.2462" gradientTransform="matrix(-0.9549 0 0 -1 1162.421 739.5137)">
	<stop  offset="1.290240e-02" style="stop-color:#B20D56"/>
	<stop  offset="4.270967e-02" style="stop-color:#9E0C4D"/>
	<stop  offset="8.085487e-02" style="stop-color:#8D0A44"/>
	<stop  offset="0.1273" style="stop-color:#800A3E"/>
	<stop  offset="0.19" style="stop-color:#79093B"/>
	<stop  offset="0.3402" style="stop-color:#77093A"/>
	<stop  offset="0.7742" style="stop-color:#F49FC5"/>
	<stop  offset="0.9785" style="stop-color:#F49FC5"/>
</linearGradient>
<path class="st3" d="M712.3,189.7c0,0-3.9,54.9-3.9,209.1c0,147.2,2,183.9,2,183.9c0-4.2-2.9-8.5-8.6-11.8c-4.7-2.7-10.9-4.1-17-4.1
	c-5.6,0-11.1,1.2-15.3,3.5c-3.4,1.9-5.2,4.5-5.2,7.1c0,0,2.5-39.5,2.5-196.8c0-126.1-0.6-196.2-0.6-196.2c0-2.6,1.7-5.2,5.2-7.1
	c4.2-2.3,9.7-3.5,15.3-3.5c6.1,0,12.3,1.4,17,4.1C709.4,181.2,712.3,185.5,712.3,189.7z"/>
<linearGradient id="SVGID_4_" gradientUnits="userSpaceOnUse" x1="428.7007" y1="358.87" x2="543.6066" y2="358.87" gradientTransform="matrix(-0.9549 0 0 -1 1162.421 739.5137)">
	<stop  offset="8.602150e-02" style="stop-color:#AD0D53"/>
	<stop  offset="0.1962" style="stop-color:#EB418C"/>
	<stop  offset="0.3306" style="stop-color:#EF67A3"/>
	<stop  offset="0.4624" style="stop-color:#EB418C"/>
	<stop  offset="0.5726" style="stop-color:#EB418C"/>
	<stop  offset="0.7581" style="stop-color:#E6116F"/>
	<stop  offset="0.8952" style="stop-color:#EB418C"/>
	<stop  offset="1" style="stop-color:#EB418C"/>
</linearGradient>
<path class="st4" d="M753.1,201.7c0,0-3.8,46.6-3.8,192.6c0,156.1,0,193.5,0,193.5c0-0.3-0.2,9.6-0.3,9.3
	c-0.3-10.1-5.4-22.9-18.2-30.2c-10.3-5.9-23.8-9.3-38-9.6c-0.6,0-1.1,0-1.7,0c-13.6,0-26.3,2.9-35.8,8.2c-7.7,4.3-12,10.2-12,16.5
	c0,0,3.3-55,4.6-200.2c0.9-103.7-2.7-192.8-2.7-192.8c0.3-2.7,4.3-12.1,12-16.5c9.5-5.3,22.2-8.2,35.8-8.2c0.6,0,1.1,0,1.7,0
	c14.3,0.2,27.8,3.6,38.1,9.5c12.8,7.4,20,16.9,20.3,27C753,201.1,753.1,201.4,753.1,201.7z"/>
</svg>
