<?xml version="1.0" encoding="utf-8"?>
<!-- Generator: Adobe Illustrator 20.0.0, SVG Export Plug-In . SVG Version: 6.00 Build 0)  -->
<svg version="1.1" id="Layer_1" xmlns="http://www.w3.org/2000/svg" xmlns:xlink="http://www.w3.org/1999/xlink" x="0px" y="0px"
	 viewBox="0 0 2182.7 708.7" style="enable-background:new 0 0 2182.7 708.7;" xml:space="preserve">
<style type="text/css">
	.st0{fill:#FFFFFF;stroke:#EFEFEF;stroke-width:14;stroke-miterlimit:10;}
	.st1{fill:none;stroke:#EFEFEF;stroke-width:20;stroke-linecap:round;stroke-miterlimit:10;}
	.st2{fill:#FFFFFF;stroke:#EFEFEF;stroke-miterlimit:10;}
	.st3{fill:none;stroke:#EFEFEF;stroke-width:15;stroke-linecap:round;stroke-miterlimit:10;}
	.st4{fill:none;stroke:#EFEFEF;stroke-width:30;stroke-linecap:round;stroke-miterlimit:10;}
	.st5{fill:#E6E7E8;stroke:#9BBDD3;stroke-linecap:round;stroke-miterlimit:10;}
	.st6{fill:none;stroke:#EFEFEF;stroke-width:14;stroke-miterlimit:10;}
	.st7{fill:#675F58;}
	.st8{fill:#FF931E;}
	.st9{fill:#BC8D63;}
	.st10{fill:#FFFFFF;}
	.st11{fill:none;}
	.st12{fill:none;stroke:#FF931E;stroke-width:8;stroke-miterlimit:10;}
	.st13{font-family:'HelveticaNeue';}
	.st14{font-size:24px;}
	.st15{font-size:28px;}
	.st16{font-size:32px;}
	.st17{fill:#00D8FF;}
	.st18{fill-opacity:0;stroke:#00D8FF;stroke-width:3;stroke-miterlimit:10;}
</style>
<g id="Layer_1_1_">
	<g id="Airplane">
		<ellipse class="st0" cx="1091.7" cy="404" rx="1044.7" ry="126.1"/>
		<line class="st1" x1="1092.9" y1="20.4" x2="1092.9" y2="288.5"/>
		<line class="st1" x1="849.6" y1="189.7" x2="1323.1" y2="189.7"/>
		<circle class="st0" cx="1093.4" cy="389.3" r="198.3"/>
		<path class="st2" d="M969.3,231.8c0,0,7.8-124,122.3-124s122.3,121.3,122.3,121.3s-22.5,45.9-121.2,45.9
			C994,275,969.3,231.8,969.3,231.8z"/>
		<g>
			<line class="st3" x1="982.2" y1="556.5" x2="953.7" y2="631.4"/>
			<line class="st4" x1="952.8" y1="633.8" x2="932.1" y2="688.3"/>
		</g>
		<g>
			<line class="st3" x1="1203.6" y1="555.5" x2="1231.6" y2="630.6"/>
			<line class="st4" x1="1232.4" y1="632.8" x2="1252.8" y2="687.7"/>
		</g>
	</g>
	<path class="st0" d="M1365.6,201c108.2-58.2,124.5-48.3,134.7-29.3s7.5,40.5-100.7,98.7s-280.8,131.2-291,112.1
		C1098.3,363.3,1257.3,259.2,1365.6,201z"/>
	<path class="st0" d="M833.2,579c-108.2,58.2-124.5,48.3-134.7,29.3s-7.5-40.5,100.7-98.7s280.8-131.2,291-112.1
		C1100.4,416.7,941.4,520.8,833.2,579z"/>
	<circle class="st5" cx="1093.4" cy="394.3" r="66"/>
	<g id="Cabine">
		<path class="st6" d="M969.3,231.8c0,0,7.8-124,122.3-124s122.3,121.3,122.3,121.3s-22.5,45.9-121.2,45.9
			C994,275,969.3,231.8,969.3,231.8z"/>
	</g>
	<g id="Blank">
		<g>
			<path class="st7" d="M1167.3,255.1h-148.4c-13.8,0-24.9,11.2-24.9,24.9c0,13.8,11.2,25,24.9,25h148.4c13.8,0,25-11.2,25-25
				C1192.2,266.2,1181.1,255.1,1167.3,255.1z M1164.1,288.5c-4.7,0-8.5-3.8-8.5-8.5s3.8-8.5,8.5-8.5c4.7,0,8.5,3.8,8.5,8.5
				S1168.8,288.5,1164.1,288.5z"/>
			<path class="st7" d="M1167.3,310.5h-148.4c-13.8,0-24.9,11.2-24.9,24.9s11.2,24.9,24.9,24.9h148.4c13.8,0,25-11.2,25-24.9
				C1192.3,321.8,1181.1,310.5,1167.3,310.5z M1164.1,344c-4.7,0-8.5-3.8-8.5-8.5s3.8-8.5,8.5-8.5c4.7,0,8.5,3.8,8.5,8.5
				S1168.8,344,1164.1,344z"/>
			<path class="st7" d="M1167.3,366h-148.4c-13.8,0-24.9,11.2-24.9,24.9c0,13.8,11.2,25,24.9,25h148.4c13.8,0,25-11.2,25-25
				C1192.2,377.2,1181.1,366,1167.3,366z M1164.1,399.5c-4.7,0-8.5-3.8-8.5-8.5s3.8-8.5,8.5-8.5c4.7,0,8.5,3.8,8.5,8.5
				S1168.8,399.5,1164.1,399.5z"/>
		</g>
		<g>
			<rect x="1050.9" y="441.5" class="st8" width="84.5" height="19.1"/>
			<rect x="1087.4" y="421.8" class="st8" width="11.4" height="28.6"/>
		</g>
		<rect x="1140.6" y="447.5" class="st8" width="167.9" height="6.3"/>
		<rect x="877.6" y="447.5" class="st8" width="167.9" height="6.3"/>
	</g>
	<g id="Gopher">
		<path d="M1002.7,237.6c0.6-0.4,1.1-1,1.7-1.3c0.7-0.4,1.2-0.8,1.3-1.7c0.1-1.1,1-1.4,1.9-0.6c1.1,0.9,1.9,2.1,2.1,3.5
			c0.3,1.8,0.8,3.7,1.2,5.5c0.2,1,0.9,1.6,1.9,1.5c1.2-0.1,2.4-0.1,3.6-0.4c2.1-0.6,4.2-1,6.4-1.1c2.2,0,4.5-0.4,6.7-0.6
			c1-0.1,1.7-0.8,2.2-1.7c1.7-3.6,3.2-7.2,4-11.1c0.6-2.5-0.3-4.8-0.6-7.2c-0.4-3-1.1-6-1.2-9c-0.1-2,0.5-4,0.8-6
			c0.1-0.7,0.1-1.2-0.5-1.8c-2.1-2.2-2.4-5-2-7.9c0.1-0.4-0.1-1.1-0.4-1.2c-4-2.6-5.2-6.8-4.1-11.4c1.4-5.6,5.1-8.5,10.9-8.6
			c0.8,0,1.6,0,2.6,0c0.2-0.9,0.5-1.8,0.6-2.8c0.8-4.4,3.2-7.3,7.2-9.2c0.8-0.3,1.4-1,2.1-1.5c1.6-1.2,3.2-2.3,4.8-3.6
			c1.5-1.3,2.9-2.7,4.5-4c1.4-1.2,2.8-2.5,4.3-3.5c5.7-3.7,11.8-6.1,18.6-6.8c2.1-0.2,4.1-0.7,6.2-1.1c2,0,3.9,0,5.9,0
			c1.8,0.2,3.6,0.3,5.3,0.5c3.2,0.3,6.4,0.9,9.4,2.2c3.2,1.4,6.6,2.5,9.9,3.5c3.6,1,6.5,3.1,9.3,5.5c3.4,3.1,6.7,6.2,10.6,8.7
			c1.6,1,2.6,2.6,3.2,4.4c0.7,2,1.3,4,1.9,6c0.2,0.8,0.6,1.1,1.5,1.1c3.7-0.1,7,1.2,9,4.4c1.6,2.5,2.3,5.4,1.9,8.4
			c-0.3,2.4-1.5,4.2-3.4,5.6c-0.3,0.3-0.6,0.8-0.6,1.3c-0.1,2.3-0.2,4.6-0.2,6.9c0,0.2-0.1,0.5-0.2,0.7c-1.6,2.7-0.9,5.8-1.6,8.6
			c-0.1,0.4,0.2,1,0.5,1.3c2.4,2.2,2.6,5.1,2.7,8.1c0.2,4.2-1.1,7.9-2.9,11.5c-0.4,0.9-0.9,1.7-1.3,2.6c-0.8,1.9-0.7,2.7,1,4
			c1.5,1.1,3.1,2,4.6,3.1c1.1,0.8,2.3,1.6,3.3,2.5c2.6,2.4,5,2.1,6.7-1c1.7-3,4-5.5,6.9-7.4c1.2-0.8,2.6-1.2,4-1.4
			c0.8-0.1,1.9,0.2,2.6,0.7c1.6,0.9,1.8,2.6,0.4,3.7c-1.4,1.1-3.1,2.1-4.8,2.7c-2.1,0.8-3.8,2-5.2,3.6c-0.5,0.6-0.8,1.4-1,2.1
			c-0.5,2.2-2.1,3.7-3.9,4.7c-0.5,0.3-1.4,0.3-2.1,0.1c-1.6-0.3-3.2-0.8-4.9-1c-2-0.2-3.8-1.1-5.5-2.1c-2-1.2-4.1-2.5-6.3-3.8
			c0,3.6,0,7,0,10.4c-1.2,0-1.6-0.3-1.6-1.5c0.1-2.9,0-5.8,0-8.7c0-0.7-0.2-1.1-0.8-1.4c-0.9-0.6-1.8-1.2-2.7-1.9
			c-1.7-1.3-2.3-3-1.8-5.1c0.4-2,1-3.9,1.4-5.9c0.8-3.2,0.6-6.3-0.9-9.2c-1.2-2.3-1.3-4.8-1.5-7.3c0-0.3,0-0.7-0.1-1.2
			c-0.3,0.2-0.5,0.3-0.7,0.5c-5.2,4.9-11.3,6.6-18.3,5.6c-4.2-0.7-8.2-1.8-11.9-4.2c-0.3,3.6-2.2,5.4-5.7,5.5
			c0.1,1.3,0.3,2.6,0.3,3.8c0,1.4,0.1,2.8-0.1,4.2c-0.3,3-2.7,4.6-5.6,3.9c-1.3-0.3-2.5-1-3.9-1.5c-0.7,0.4-1.7,1.1-2.7,1.6
			c-1.6,0.7-3.2,0.7-4.7-0.2c-1.2-0.8-1.8-1.8-1.8-3.3c0-2.7,0-5.3,0-8.1c-2.8-0.3-4.6-1.9-4.6-5.1c-8.6,5.4-17.3,7.8-27,2.7
			c-0.8,3.5-2.4,6.9-1.3,10.5c1.2,4.1-0.6,7-3.4,9.5c-1,1-1.4,1.9-1.3,3.2c0.2,3.4,0.3,6.8,0.4,10.2c0,0.5,0.1,3.1,0.1,3.8
			c-0.5,0-1.3,0-1.7,0c-0.1-4.1-0.1-10.3-0.2-14.4c-0.2,0-0.3,0-0.3,0c-2.3,2.3-5.1,3.4-8.3,3.4c-1.1,0-2.2,0.8-3.3,1.1
			c-1.3,0.4-2.7,0.7-4.1,0.9c-1.4,0.1-2.8,0-4.2-0.1c-2.4-0.1-4.7,0.1-7.1,1.1c-3.7,1.5-7.3,0.4-9.6-2.8c-1.7-2.3-3.1-4.8-4.6-7.3
			C1002.7,238.2,1002.7,237.8,1002.7,237.6z M1176.8,240.3c-0.7,0.4-1.4,0.8-2.1,1.1c0.1,0.1,0.1,0.2,0.2,0.4
			c1.4-0.8,2.9-1.4,4.2-2.4c0.5-0.4,1.2-1.4,1-1.9c-0.2-0.7-1-1.4-1.7-1.6c-1.9-0.6-3.5,0.2-5,1.2c1.2-0.3,2.4-0.7,3.6-1
			c1-0.2,2,0,2.6,1c-2.2-1.4-4.1-0.4-6,0.5c0,1,0.5,1.1,1.2,0.9c-0.5,0.3-0.9,0.7-1.4,1c0.1,0.1,0.1,0.2,0.2,0.3
			c1.1-0.5,2.2-0.9,3.3-1.4c0-0.1-0.1-0.2-0.1-0.2c-0.7,0.1-1.3,0.3-2,0.4c0.8-0.6,1.6-0.9,2.6-0.4c-0.7,0.6-1.4,1-2.2,1.4
			c-0.7,0.3-0.9,0.7-0.4,1.3C1175.3,240.8,1176.1,240.6,1176.8,240.3z M1091.8,170.5c-2.8,0.2-8.2,0.4-13.6,0.9
			c-6.7,0.6-13.2,1.8-19.5,4.2c-5.3,2-9.7,5.2-12.6,10.2c-2.9,5-3.9,10.5-3.9,16.3c0.1,3.6,1,6.8,3.2,9.6c3.4,4.5,7.6,8,13.3,9
			c6.2,1.1,12-0.5,17.4-3.7c1.1-0.7,2.4-1.4,3-2.5c1.4-2.4,3.5-4,5.9-5.1c0.2-0.1,0.6-0.4,0.6-0.6c-0.2-1.9,1.1-2.8,2.6-3.5
			c3.3-1.4,6.6-1.4,9.9,0.1c1,0.4,1.8,1.4,2.4,2.3c0.4,0.6,0.6,1,1.3,1.3c2.5,1,4.7,2.5,5.7,5.2c0.2,0.4,0.6,0.8,1,1
			c2.5,1.7,5.4,2.7,8.3,3.4c7.5,1.8,14.4,0.8,20.2-4.8c2.5-2.4,4.9-5,5.6-8.5c1.5-7.2,0.4-14.2-3.4-20.6c-3.6-6.1-9.1-9.4-15.8-11.2
			C1113.9,170.8,1104.1,170.5,1091.8,170.5z M1089.9,145.3c0.1,0.6,0.1,1.1,0.2,1.6c0.3,4,0.8,8.1,1,12.1c0.2,3,0.1,6,0,9
			c0,0.9,0.2,1.2,1.1,1.1c3.1,0,6.2-0.1,9.2,0c5.9,0.1,11.8,0.6,17.6,1.8c3.2,0.7,6.3,1.6,9.6,2.5c0-0.1,0.2-0.2,0.3-0.4
			c1.6-3.6,3.2-7.2,4.8-10.8c0.3-0.7,0-1-0.4-1.4c-2-1.8-3.9-3.6-5.9-5.3c-2.1-1.9-4.5-3.2-7.2-4.1c-3.8-1.2-7.5-2.6-11.3-4
			c-1.2-0.4-2.3-1-3.5-1.1c-3.1-0.4-6.2-0.8-9.3-1C1094.1,145.3,1092.1,145.3,1089.9,145.3z M1053.3,176.6c3.9-2.1,7.9-3.5,12-4.5
			c7.7-1.8,15.6-2.6,23.6-2.8c0.9,0,1.3-0.2,1.2-1.3c-0.1-1.8-0.2-3.5-0.1-5.3c0.3-5.4-0.4-10.8-0.9-16.1c-0.1-1.1-0.6-1.3-1.6-1
			c-1.5,0.4-3,0.6-4.5,0.8c-3.4,0.6-7,0.9-10.2,2.5c-4.8,2.4-9.6,4.6-13.1,8.8c-0.8,1-1.9,1.7-2.9,2.5c-1.2,0.9-2.4,1.7-3.7,2.5
			c-1.4,1-2.3,2.2-1.9,4c0.2,0.7,0.1,1.5,0.2,2.2C1051.9,171.6,1052.2,174.1,1053.3,176.6z M1035.8,207.1c-0.2,2.1-0.8,4.3-0.6,6.5
			c0.3,3.9,1.2,7.7,1.7,11.6c0.2,1.1,0.3,2.3,0.2,3.4c-0.7,4.5-2.4,8.7-4.4,12.8c-0.6,1.2-1.6,2-2.9,2.1c-2.3,0.3-4.6,0.6-6.9,0.6
			c-2.1,0-4.2,0.4-6.2,1c-1.3,0.4-2.8,0.5-4.3,0.4c-1.4,0-2.3-0.8-2.6-2.2c-0.4-1.9-0.8-3.9-1.4-5.8c-0.3-0.9-0.8-1.7-1.2-2.6
			c-0.1,0-0.3,0-0.4,0c-0.2,1.8-1.7,2.2-3,3c0.2,0.5,0.3,0.9,0.5,1.2c1.2,1.9,2.4,3.9,3.7,5.7c2.4,3.2,5.2,3.9,9,2.5
			c1-0.4,2-0.8,3-0.9c2.7-0.1,5.4-0.1,8.1,0c1.4,0,2.7-0.2,3.9-0.9c1.5-0.8,3.1-1.2,4.8-1.3c1,0,2.2-0.2,3-0.7
			c3.4-2.3,6.7-4.8,8.9-8.5c0.6-1.1,0.9-2.1,0.5-3.4c-0.7-2.7-0.8-5.3-0.1-8c0.4-1.4,0.7-2.8,1.1-4.2c0.2-0.7,0-1-0.5-1.5
			c-3.4-2.5-6.1-5.7-7.9-9.5c-0.1-0.3-0.5-0.6-0.8-0.7C1039.6,207.6,1037.9,207.3,1035.8,207.1z M1151.1,206.5c-2.4,0-4.6,0-6.8,0.1
			c-0.3,0-0.6,0.3-0.8,0.5c-1.1,1.7-2.2,3.5-3.3,5.2c-0.1,0.2-0.3,0.5-0.3,0.7c0,2.9-0.1,6,1.2,8.6c1.9,3.8,2.1,7.6,0.9,11.6
			c-0.4,1.4-0.7,2.8-1,4.2c-0.6,2.2,0.2,3.8,2,5c0.5,0.3,0.9,0.6,1.4,0.9c3.4,2,6.7,4,10.1,5.8c1.3,0.7,2.9,1,4.4,1.4
			c1.1,0.3,2.4,0.2,3.4,0.7c1.9,1,3.2,0.2,4.4-1.2c0.6-0.8,1-1.8,1.5-2.7c0.6-1,1.1-2.1,1.8-2.9c0.7-0.8,1.6-1.4,2.3-2.1
			c0.2-0.2,0.4-0.6,0.4-0.8c-0.2-0.8-0.5-1.5-0.8-2.4c-0.9,0.9-1.8,1.7-2.6,2.6c-0.8,1-1.5,2.2-2.2,3.3c-2,3.2-5,3.6-7.9,1.2
			c-1.5-1.2-3-2.3-4.6-3.4c-1-0.7-2.1-1.4-3.1-2.1c-2.7-2-3.1-3.3-1.7-6.4c1.1-2.3,2.4-4.6,3-7c1.1-4.7,2-9.6-1.8-13.7
			c-0.6-0.7-0.7-1.5-0.6-2.5C1150.6,209.5,1150.8,207.8,1151.1,206.5z M1134.8,162.6C1134.8,162.5,1134.8,162.6,1134.8,162.6
			c-1.7,3.7-3.3,7.3-4.9,11c-0.1,0.2,0.1,0.8,0.4,1c0.7,0.5,1.4,0.8,2.1,1.2c6.5,4.3,10.2,10.4,11.6,18c0.4,1.9,0.6,2,2.4,1.9
			c0.6,0,1-0.2,0.9-0.9c-0.1-1.3-0.1-2.7-0.3-4c-0.5-3.6-2.3-6.6-3.6-9.8c-0.6-1.4-1.3-2.7-2-4.3c1-0.3,1.9-0.6,2.7-0.9
			C1143.1,170,1141.1,164.8,1134.8,162.6z M1101.3,220c2.2,0,3.5-0.7,4.2-2.1c0.9-1.8,0.7-4-0.9-5.3c-1.3-1.1-2.8-1.8-4.3-2.6
			c-0.2-0.1-0.7,0-0.9,0.2c-3.7,2.4-7.5,2.4-11.4,0.8c-1.3-0.5-2.1-0.5-3.2,0.1c-1.8,1-3.4,2-4.3,4c-1.2,2.7,0.3,5.1,3.2,5.1
			c1.3,0,2.7-0.3,4-0.5c2-0.2,4.1-0.7,6.1-0.7C1096.6,219.1,1099.1,219.6,1101.3,220z M1046.1,177.3c-4.4,5.9-7.5,12.2-8.2,19.5
			c0.5,0,0.9,0,1.3,0c1.8,0,1.9-0.1,2.2-1.8c1.3-7.2,4.4-13.3,10.5-17.6c0.2-0.2,0.5-0.7,0.4-0.9c-1.3-3.3-1.6-6.7-1.8-10.2
			c0-0.3-0.2-0.6-0.3-1c-4.6,1.7-7.5,6.1-7.3,11C1043.8,176.7,1044.8,177,1046.1,177.3z M1036.2,196.3c0.3-1.3,0.5-2.6,0.9-3.8
			c0.3-1,0.3-1.8-0.7-2.6c-1.5-1.1-1.8-3-1.1-4.4c0.6-1.2,1.8-1.6,3.8-1.4c0.1,0,0.2,0.1,0.3,0.1c0.2-0.1,0.6-0.1,0.7-0.3
			c1.1-1.8,2.2-3.7,3.4-5.7c-2.8-0.6-5.4-0.7-8,0.1s-4.4,2.6-5.4,5.2c-0.4,1-0.6,2-0.8,3C1028.3,191.2,1031.3,195.3,1036.2,196.3z
			 M1148.9,194.6c4.7-0.1,7.9-4.2,7.1-9c-1.1-7-6.6-9.3-12.4-7.9c0.8,1.8,1.6,3.5,2.4,5.3c0.7,0,1.4-0.1,2-0.1
			c1.3,0,2.4,0.5,3.1,1.8c1,1.8,0.4,3.5-1.8,4.9c-0.3,0.2-0.8,0.7-0.8,1.1C1148.6,191.8,1148.8,193.2,1148.9,194.6z M1091.9,220.5
			c-0.4,0-0.7,0-0.9,0c-1.8,0.4-3.7,0.8-5.5,1.2c-0.2,0.1-0.4,0.5-0.4,0.8c-0.1,2.5-0.2,4.9-0.3,7.4c0,0.4,0.1,0.9,0.3,1.2
			c0.6,1,2,1.6,3.3,1.2c1.5-0.4,3.3-1,3.5-2.7C1092.1,226.6,1091.9,223.6,1091.9,220.5z M1093.6,220.3c0,3,0.2,5.8-0.1,8.5
			c-0.1,1.5,0.6,2.1,1.7,2.7c0.5,0.2,0.9,0.4,1.4,0.5c2.2,0.5,3.8-0.5,3.9-2.7c0.1-2.4-0.1-4.8-0.2-7.2c0-0.3-0.3-0.7-0.6-0.7
			C1097.6,220.8,1095.6,220.6,1093.6,220.3z M1152.4,196.3c-2.8,0.2-5.3,0.5-8.1,0.7c0,2.6,0,5.3,0,8c1.7,0.4,3.6,0.4,5.4-0.2
			c0.7-0.2,1.6-0.7,1.9-1.4C1152.8,201.3,1152.6,198.8,1152.4,196.3z M1033.7,198.1c-1.2,5.1,2.2,8.8,7.3,8.3c0-2.8,0-5.5,0-8.3
			C1038.4,198.1,1036.1,198.1,1033.7,198.1z"/>
		<path class="st9" d="M1091.8,170.5c12.4,0,22.1,0.4,31.7,2.9c6.7,1.8,12.2,5.1,15.8,11.2c3.8,6.4,4.8,13.3,3.4,20.6
			c-0.7,3.5-3.1,6.1-5.6,8.5c-5.8,5.6-12.7,6.5-20.2,4.8c-3-0.7-5.8-1.7-8.3-3.4c-0.4-0.3-0.9-0.6-1-1c-1-2.7-3.2-4.2-5.7-5.2
			c-0.7-0.3-0.9-0.7-1.3-1.3c-0.6-0.9-1.4-1.8-2.4-2.3c-3.2-1.5-6.6-1.5-9.9-0.1c-1.5,0.6-2.8,1.5-2.6,3.5c0,0.2-0.3,0.5-0.6,0.6
			c-2.5,1.1-4.5,2.7-5.9,5.1c-0.6,1.1-1.9,1.8-3,2.5c-5.3,3.2-11.1,4.8-17.4,3.7c-5.7-1-9.8-4.5-13.3-9c-2.2-2.8-3.1-6-3.2-9.6
			c-0.1-5.8,0.9-11.3,3.9-16.3c2.9-5,7.3-8.2,12.6-10.2c6.3-2.4,12.8-3.6,19.5-4.2C1083.6,170.8,1088.9,170.6,1091.8,170.5z
			 M1137.2,196c0-5.6-1.4-10.4-5.3-14.3c-2.7-2.7-6-4.4-9.7-5.4c-4.9-1.3-9.8-1.9-14.8-0.2c-6.5,2.3-10.8,6.7-12.1,13.5
			c-1.3,6.7,0.8,12.5,6.2,16.8c6.4,5,13.7,7,21.8,5.5C1131.8,210.5,1137.6,204.7,1137.2,196z M1065.9,215c0.8-0.1,1.8-0.1,2.8-0.2
			c5.4-0.7,10-3.1,14-6.8c4.8-4.5,7-9.9,5.9-16.4c-1.6-9-9.9-15.1-19.1-14.7c-3,0.1-5.8,1-8.4,2.2c-8.1,3.7-13.6,9.3-13.9,18.7
			c-0.1,4,0.9,7.6,3.5,10.7C1054.7,213.1,1059.8,214.8,1065.9,215z"/>
		<path class="st9" d="M1089.9,145.3c2.2,0,4.2-0.1,6.2,0c3.1,0.2,6.2,0.6,9.3,1c1.2,0.2,2.4,0.7,3.5,1.1c3.8,1.3,7.5,2.8,11.3,4
			c2.7,0.9,5.1,2.2,7.2,4.1c2,1.8,4,3.5,5.9,5.3c0.4,0.4,0.7,0.7,0.4,1.4c-1.6,3.6-3.2,7.2-4.8,10.8c-0.1,0.2-0.2,0.4-0.3,0.4
			c-3.3-0.9-6.4-1.8-9.6-2.5c-5.8-1.2-11.7-1.7-17.6-1.8c-3.1,0-6.2,0-9.2,0c-0.9,0-1.1-0.3-1.1-1.1c0-3,0.1-6,0-9
			c-0.2-4-0.7-8.1-1-12.1C1090.2,146.5,1090.1,146,1089.9,145.3z"/>
		<path class="st9" d="M1053.3,176.6c-1.2-2.4-1.4-5-1.8-7.5c-0.1-0.7-0.1-1.5-0.2-2.2c-0.4-1.9,0.5-3,1.9-4
			c1.2-0.9,2.5-1.6,3.7-2.5c1-0.8,2.1-1.5,2.9-2.5c3.5-4.2,8.3-6.5,13.1-8.8c3.2-1.6,6.7-1.9,10.2-2.5c1.5-0.3,3-0.5,4.5-0.8
			c1-0.2,1.4,0,1.6,1c0.6,5.4,1.2,10.7,0.9,16.1c-0.1,1.8,0,3.5,0.1,5.3c0.1,1-0.3,1.2-1.2,1.3c-7.9,0.2-15.8,1-23.6,2.8
			C1061.2,173.1,1057.2,174.3,1053.3,176.6z"/>
		<path class="st9" d="M1035.8,207.1c2,0.3,3.7,0.5,5.3,0.7c0.3,0.1,0.7,0.4,0.8,0.7c1.9,3.8,4.5,7,7.9,9.5c0.6,0.4,0.7,0.8,0.5,1.5
			c-0.4,1.4-0.7,2.8-1.1,4.2c-0.7,2.7-0.6,5.3,0.1,8c0.3,1.2,0.1,2.3-0.5,3.4c-2.2,3.7-5.5,6.2-8.9,8.5c-0.8,0.5-2,0.7-3,0.7
			c-1.7,0.1-3.3,0.5-4.8,1.3c-1.2,0.7-2.5,0.9-3.9,0.9c-2.7-0.1-5.4-0.1-8.1,0c-1,0-2,0.5-3,0.9c-3.8,1.4-6.6,0.7-9-2.5
			c-1.4-1.8-2.5-3.8-3.7-5.7c-0.2-0.4-0.3-0.8-0.5-1.2c1.2-0.8,2.8-1.2,3-3c0.1,0,0.3,0,0.4,0c0.4,0.9,1,1.7,1.2,2.6
			c0.5,1.9,0.9,3.9,1.4,5.8c0.3,1.4,1.3,2.2,2.6,2.2c1.4,0,2.9,0,4.3-0.4c2-0.6,4.1-1,6.2-1c2.3-0.1,4.6-0.3,6.9-0.6
			c1.3-0.2,2.3-0.9,2.9-2.1c2-4.1,3.8-8.2,4.4-12.8c0.2-1.1,0-2.3-0.2-3.4c-0.6-3.9-1.4-7.7-1.7-11.6
			C1035.1,211.5,1035.7,209.3,1035.8,207.1z"/>
		<path class="st9" d="M1151.1,206.5c-0.2,1.4-0.3,3.1-0.7,4.7c-0.2,1-0.1,1.8,0.6,2.5c3.8,4.2,2.9,9,1.8,13.7c-0.6,2.4-1.9,4.7-3,7
			c-1.4,3-1.1,4.4,1.7,6.4c1,0.7,2.1,1.4,3.1,2.1c1.5,1.1,3.1,2.2,4.6,3.4c2.9,2.4,5.9,1.9,7.9-1.2c0.7-1.1,1.4-2.3,2.2-3.3
			c0.7-0.9,1.6-1.7,2.6-2.6c0.3,0.9,0.6,1.6,0.8,2.4c0.1,0.2-0.2,0.6-0.4,0.8c-0.8,0.7-1.7,1.3-2.3,2.1c-0.7,0.9-1.2,1.9-1.8,2.9
			c-0.5,0.9-0.9,1.9-1.5,2.7c-1.1,1.4-2.4,2.2-4.4,1.2c-1-0.5-2.3-0.4-3.4-0.7c-1.5-0.4-3.1-0.7-4.4-1.4c-3.4-1.8-6.8-3.9-10.1-5.8
			c-0.5-0.3-0.9-0.6-1.4-0.9c-1.8-1.2-2.6-2.8-2-5c0.4-1.4,0.6-2.8,1-4.2c1.2-4,1-7.8-0.9-11.6c-1.3-2.7-1.2-5.7-1.2-8.6
			c0-0.2,0.2-0.5,0.3-0.7c1.1-1.7,2.2-3.5,3.3-5.2c0.2-0.2,0.5-0.5,0.8-0.5C1146.3,206.5,1148.6,206.5,1151.1,206.5z"/>
		<path class="st9" d="M1134.8,162.6c6.3,2.2,8.3,7.4,9.4,13.3c-0.8,0.3-1.7,0.5-2.7,0.9c0.7,1.5,1.4,2.9,2,4.3
			c1.4,3.2,3.2,6.3,3.6,9.8c0.2,1.3,0.2,2.6,0.3,4c0.1,0.7-0.3,0.9-0.9,0.9c-1.9,0.1-2.1-0.1-2.4-1.9c-1.4-7.6-5.1-13.7-11.6-18
			c-0.7-0.4-1.5-0.7-2.1-1.2c-0.2-0.2-0.5-0.7-0.4-1C1131.4,169.8,1133.1,166.3,1134.8,162.6
			C1134.8,162.6,1134.8,162.5,1134.8,162.6z"/>
		<path class="st9" d="M1046.1,177.3c-1.3-0.4-2.2-0.6-3.1-0.9c-0.2-4.9,2.8-9.3,7.3-11c0.1,0.3,0.2,0.6,0.3,1
			c0.2,3.5,0.5,6.9,1.8,10.2c0.1,0.2-0.2,0.7-0.4,0.9c-6.1,4.3-9.3,10.4-10.5,17.6c-0.3,1.7-0.4,1.8-2.2,1.8c-0.4,0-0.8,0-1.3,0
			C1038.6,189.6,1041.6,183.3,1046.1,177.3z"/>
		<path class="st9" d="M1152.4,196.3c0.1,2.4,0.4,4.9-0.8,7.2c-0.3,0.6-1.2,1.2-1.9,1.4c-1.8,0.6-3.7,0.6-5.4,0.2c0-2.8,0-5.4,0-8
			C1147.1,196.8,1149.6,196.6,1152.4,196.3z"/>
		<path class="st9" d="M1033.7,198.1c2.4,0,4.7,0,7.3,0c0,2.8,0,5.5,0,8.3C1035.8,206.8,1032.6,203.2,1033.7,198.1z"/>
		<path d="M1137.2,196c0.4,8.7-5.5,14.5-13.9,16c-8.1,1.5-15.4-0.5-21.8-5.5c-5.4-4.3-7.5-10.1-6.2-16.8c1.3-6.8,5.6-11.3,12.1-13.5
			c4.9-1.7,9.9-1,14.8,0.2c3.7,0.9,7,2.6,9.7,5.4C1135.8,185.6,1137.3,190.3,1137.2,196z M1130.4,193c-0.1-0.6-0.1-1.7-0.3-2.7
			c-1.9-9.9-12.1-15.8-21.8-12.8c-8.2,2.6-13.2,10.7-11.4,18.6c1.8,8.1,9.4,13.6,17.9,13S1129.9,201.8,1130.4,193z M1123.8,178.1
			c6.7,5,9.6,11.4,7.5,19.3c-2.3,8.4-8.4,12.4-17,13.3c0.4,0.1,0.6,0.2,0.9,0.3c3.4,0.4,6.7,0.3,10-0.7c5.5-1.7,9.6-5,10.7-10.9
			c0.4-2.1,0.3-4.4,0.1-6.5C1135.3,186.1,1130.6,180.2,1123.8,178.1z"/>
		<path d="M1065.9,215c-6.1-0.1-11.4-1.8-15.3-6.5c-2.6-3.1-3.6-6.7-3.5-10.7c0.3-9.4,5.8-15,13.9-18.7c2.7-1.2,5.5-2.1,8.4-2.2
			c9.3-0.4,17.6,5.7,19.1,14.7c1.2,6.5-1,11.9-5.9,16.4c-4,3.7-8.6,6.1-14,6.8C1067.8,214.8,1066.8,214.8,1065.9,215z M1070.4,178.3
			c-1.1,0.1-2.2,0.2-3.4,0.4c-11.7,2.1-17.3,15.2-10.7,24.9c5,7.3,15.5,9.5,23.1,4.7c7-4.4,9.8-12.6,6.5-19.9
			C1083.1,181.8,1077.7,178.8,1070.4,178.3z M1073.8,212.2c-7.9,0.9-14.6-1.4-19-8.3c-4.4-6.9-3.5-13.9,1.2-20.4
			c-3.1,2.3-5.4,5.1-6.7,8.8c-2.3,6.7-0.6,13.4,4.4,17.5c3.8,3.2,8.4,4.2,13.3,4C1069.2,213.6,1071.7,213.1,1073.8,212.2z"/>
		<path d="M1128.6,193.6c0,3.2-2.5,5.7-5.6,5.7c-3.2,0-5.8-2.6-5.7-5.7c0-3.2,2.5-5.6,5.7-5.6C1126.1,188,1128.4,190.5,1128.6,193.6
			z"/>
		<path d="M1079.8,189.7c3.2,0,5.6,2.4,5.7,5.6c0,3.2-2.5,5.7-5.7,5.7c-3.2,0-5.7-2.6-5.7-5.7
			C1074.2,192.2,1076.7,189.7,1079.8,189.7z"/>
		<circle class="st10" cx="1081.3" cy="195.8" r="1.2"/>
		<circle class="st10" cx="1124.6" cy="194.7" r="1.2"/>
	</g>
	<g id="RightCloud">
		<path class="st8" d="M1466.3,330c33.8,0,61.3,27.5,61.3,61.3c0,0.2,0,0.4,0,0.6c0,0.5-0.1,0.9-0.1,1.4l-0.2,9.3h9.3
			c22.5,0.1,40.8,18.4,40.8,40.9c0,22.4-18.2,40.8-40.7,40.9h-2h-166.3c-25,0-45.4-20.4-45.4-45.4c0-19.4,12.3-36.6,30.7-42.9
			l5.1-1.7l0.9-5.3c2.2-13.1,13.5-22.7,26.8-22.7c4.2,0,8.3,1,12.2,2.9l8.3,4.2l4-8.4C1421.2,343.7,1442.9,330,1466.3,330
			 M1466.3,320.8c-28,0-52.1,16.4-63.5,40.1c-4.9-2.5-10.4-3.9-16.3-3.9c-18,0-32.9,13.1-35.8,30.2c-21.4,7.3-36.8,27.6-36.8,51.5
			c0,30.1,24.4,54.5,54.5,54.5h168.3l0,0c27.5-0.1,49.7-22.4,49.7-50c0-27.5-22.3-49.9-49.8-50c0-0.7,0.1-1.4,0.1-2.2
			C1536.8,352.3,1505.2,320.8,1466.3,320.8L1466.3,320.8z"/>
		<rect x="1591.6" y="447.5" class="st8" width="140.5" height="6.3"/>
		<g>
			<line class="st11" x1="1366.8" y1="447.8" x2="1498.1" y2="447.8"/>
			<g>
				<line class="st12" x1="1392.6" y1="447.8" x2="1498.1" y2="447.8"/>
				<g>
					<polygon class="st8" points="1397.8,465.8 1366.8,447.8 1397.8,429.8 					"/>
				</g>
			</g>
		</g>
		<g>
			<line class="st11" x1="1534.4" y1="466.2" x2="1403.2" y2="466.2"/>
			<g>
				<line class="st12" x1="1508.6" y1="466.2" x2="1403.2" y2="466.2"/>
				<g>
					<polygon class="st8" points="1503.3,448.2 1534.4,466.2 1503.3,484.2 					"/>
				</g>
			</g>
		</g>
	</g>
	<g id="Clients">
		<g>
			<path class="st7" d="M1879.3,341.8H1751c-8.2,0-14.8,6.7-14.9,14.9v95.4c0,8.2,6.7,14.8,14.9,14.9h128.4
				c8.2,0,14.8-6.7,14.9-14.9v-95.4C1894.2,348.5,1887.6,341.8,1879.3,341.8z M1877.8,351.3c1.9,0,3.4,1.5,3.4,3.4s-1.5,3.4-3.4,3.4
				c-1.9,0-3.4-1.5-3.4-3.4S1875.9,351.3,1877.8,351.3z M1851.2,351.5h16.6c1.8,0,3.2,1.4,3.2,3.2s-1.4,3.2-3.2,3.2h-16.6
				c-1.8,0-3.2-1.4-3.2-3.2C1848.1,353,1849.6,351.5,1851.2,351.5z M1886.1,452.2c0,3.7-3.1,6.7-6.8,6.8H1751
				c-3.7,0-6.7-3.1-6.8-6.8v-85.9h141.9V452.2L1886.1,452.2z"/>
		</g>
		<g>
			<rect x="1765.6" y="387.5" class="st10" width="141.9" height="92.2"/>
			<g>
				<path class="st7" d="M1900.6,362.8h-128.3c-8.2,0-14.8,6.7-14.9,14.9v95.4c0,8.2,6.7,14.8,14.9,14.9h128.4
					c8.2,0,14.8-6.7,14.9-14.9v-95.4C1915.6,369.5,1908.8,362.8,1900.6,362.8z M1899.1,372.3c1.9,0,3.4,1.5,3.4,3.4
					s-1.5,3.4-3.4,3.4c-1.9,0-3.4-1.5-3.4-3.4C1895.8,374,1897.2,372.3,1899.1,372.3z M1872.6,372.5h16.6c1.8,0,3.2,1.4,3.2,3.2
					s-1.4,3.2-3.2,3.2h-16.6c-1.8,0-3.2-1.4-3.2-3.2C1869.3,374,1870.8,372.5,1872.6,372.5z M1907.4,473.2c0,3.7-3.1,6.7-6.8,6.8
					h-128.3c-3.7,0-6.7-3.1-6.8-6.8v-85.9h141.9V473.2L1907.4,473.2z"/>
			</g>
		</g>
		<g>
			<rect x="1788.6" y="359" class="st10" width="141.9" height="93.2"/>
			<g>
				<path class="st7" d="M1923.8,335.2h-128.3c-8.2,0-14.8,6.7-14.9,14.9v95.4c0,8.2,6.7,14.8,14.9,14.9h128.4
					c8.2,0,14.8-6.7,14.9-14.9v-95.4C1938.6,341.8,1931.9,335.2,1923.8,335.2z M1922.2,344.8c1.9,0,3.4,1.5,3.4,3.4
					s-1.5,3.4-3.4,3.4c-1.9,0-3.4-1.5-3.4-3.4S1920.3,344.8,1922.2,344.8z M1895.6,345h16.6c1.8,0,3.2,1.4,3.2,3.2s-1.4,3.2-3.2,3.2
					h-16.6c-1.8,0-3.2-1.4-3.2-3.2C1892.4,346.3,1893.9,345,1895.6,345z M1930.6,445.5c0,3.7-3.1,6.7-6.8,6.8h-128.3
					c-3.7,0-6.7-3.1-6.8-6.8v-85.9h141.9L1930.6,445.5L1930.6,445.5z"/>
			</g>
			<g id="auIZQe.tif_1_">
			</g>
		</g>
	</g>
	<g id="LeftCloud">
		<path class="st8" d="M750.6,330c33.8,0,61.3,27.5,61.3,61.3c0,0.2,0,0.4,0,0.6c0,0.5-0.1,0.9-0.1,1.4l-0.2,9.3h9.3
			c22.5,0.1,40.8,18.4,40.8,40.9c0,22.4-18.2,40.8-40.7,40.9h-2H652.8c-25,0-45.4-20.4-45.4-45.4c0-19.4,12.3-36.6,30.7-42.9
			l5.1-1.7l0.9-5.3c2.2-13.1,13.5-22.7,26.8-22.7c4.2,0,8.3,1,12.2,2.9l8.3,4.2l4-8.4C705.5,343.7,727.2,330,750.6,330 M750.6,320.8
			c-28,0-52.1,16.4-63.5,40.1c-4.9-2.5-10.4-3.9-16.3-3.9c-18,0-32.9,13.1-35.8,30.2c-21.4,7.3-36.8,27.6-36.8,51.5
			c0,30.1,24.4,54.5,54.5,54.5H821l0,0c27.5-0.1,49.7-22.4,49.7-50c0-27.5-22.3-49.9-49.8-50c0-0.7,0.1-1.4,0.1-2.2
			C821,352.3,789.5,320.8,750.6,320.8L750.6,320.8z"/>
	</g>
	<rect x="429.1" y="447.5" class="st8" width="167.9" height="6.3"/>
	<g>
		<path class="st7" d="M380.9,328.8h-54.6c-5.1,0-9.2,4.1-9.2,9.2c0,5.1,4.1,9.2,9.2,9.2h54.6c5.1,0,9.2-4.1,9.2-9.2
			S386,328.8,380.9,328.8z M379.7,341c-1.7,0-3.1-1.4-3.1-3.1s1.4-3.1,3.1-3.1c1.7,0,3.1,1.4,3.1,3.1
			C382.9,339.7,381.5,341,379.7,341z"/>
		<path class="st7" d="M380.9,349.2h-54.6c-5.1,0-9.2,4.1-9.2,9.2c0,5.1,4.1,9.2,9.2,9.2h54.6c5.1,0,9.2-4.1,9.2-9.2
			S386,349.2,380.9,349.2z M379.7,361.5c-1.7,0-3.1-1.4-3.1-3.1s1.4-3.1,3.1-3.1c1.7,0,3.1,1.4,3.1,3.1
			C382.9,360,381.5,361.5,379.7,361.5z"/>
		<path class="st7" d="M380.9,369.5h-54.6c-5.1,0-9.2,4.1-9.2,9.2c0,5.1,4.1,9.2,9.2,9.2h54.6c5.1,0,9.2-4.1,9.2-9.2
			C390.1,373.7,386,369.5,380.9,369.5z M379.7,381.8c-1.7,0-3.1-1.4-3.1-3.1s1.4-3.1,3.1-3.1c1.7,0,3.1,1.4,3.1,3.1
			C382.9,380.5,381.5,381.8,379.7,381.8z"/>
	</g>
	<g>
		<g>
			<g>
				<path class="st7" d="M325.3,468.5c-0.3,0-0.7-0.2-0.9-0.5c-0.4-0.7-0.6-1.4-0.6-2.2v-60c0-2.3,1.9-4.2,4.2-4.2h91
					c2.3,0,4.2,1.9,4.2,4.2v60c0,0.8-0.2,1.5-0.6,2.1c-0.3,0.5-0.9,0.6-1.4,0.4c-0.5-0.3-0.6-0.9-0.4-1.4c0.2-0.3,0.3-0.7,0.3-1.1
					v-60c0-1.2-1-2.2-2.2-2.2h-91c-1.2,0-2.2,1-2.2,2.2v60c0,0.4,0.1,0.8,0.3,1.1c0.3,0.5,0.1,1.1-0.3,1.4
					C325.7,468.5,325.5,468.5,325.3,468.5z"/>
			</g>
			<g>
				<path class="st7" d="M416.9,463.2h-86.8c-0.3,0-0.5-0.2-0.5-0.5v-55c0-0.3,0.2-0.5,0.5-0.5h86.8c0.3,0,0.5,0.2,0.5,0.5v55
					C417.4,463,417.2,463.2,416.9,463.2z M330.6,462.2h85.8v-54h-85.8V462.2z"/>
			</g>
		</g>
		<g>
			<g>
				<g>
					<path class="st7" d="M427.1,474H319.8c-5,0-6.8-2.1-7-2.3c-0.1-0.2-0.2-0.4-0.2-0.6V468c0-0.6,0.4-1,1-1s1,0.4,1,1v2.7
						c0.5,0.4,2.1,1.4,5.2,1.4h107.3c3.1,0,4.8-0.9,5.5-1.4v-2.1c0-0.6,0.4-1,1-1s1,0.4,1,1v2.6c0,0.3-0.1,0.5-0.3,0.7
						C434.2,471.8,432.1,474,427.1,474z"/>
				</g>
				<g>
					<path class="st7" d="M313.6,471c-0.6,0-1-0.4-1-1v-2.2c0-0.6,0.5-1.1,1.1-1.1h119.7c0.6,0,1.1,0.5,1.1,1.1v1.8c0,0.6-0.4,1-1,1
						s-1-0.4-1-1v-0.9H314.6v1.3C314.6,470.5,314.2,471,313.6,471z"/>
				</g>
				<g>
					<path class="st7" d="M379.9,470h-13.1c-1.1,0-2.6-0.5-2.8-1.7v-0.1v-0.1c0-0.3,0.2-0.5,0.5-0.5c0.3,0,0.5,0.2,0.5,0.5
						c0,0.5,1,0.9,1.8,0.9h13.1c0.5,0,1.4-0.4,1.4-0.9c0-0.3,0.3-0.5,0.5-0.5c0.3,0,0.5,0.3,0.5,0.5
						C382.2,469.3,380.7,470,379.9,470z"/>
				</g>
			</g>
		</g>
	</g>
</g>
<g id="Text">
	<text transform="matrix(1 0 0 1 650.3171 394.309)" class="st13 st14">HTTP Rest API</text>
	<text transform="matrix(1 0 0 1 650.3171 423.109)" class="st13 st14">WebSocket API</text>
	<text transform="matrix(1 0 0 1 650.3171 451.909)" class="st13 st14">E-mail (SMTP)</text>
	<text transform="matrix(1 0 0 1 650.3171 480.709)" class="st13 st14">Push services</text>
	<text transform="matrix(1 0 0 1 1372.7473 413.1097)" class="st13 st15">WebSocket</text>
	<text transform="matrix(1 0 0 1 1019.2975 347.6033)" class="st10 st13 st16">Go</text>
	<text transform="matrix(1 0 0 1 1019.2975 402.4093)" class="st10 st13 st16">{ JS }</text>
	<text transform="matrix(1 0 0 1 1801.3977 441.9089)" class="st13 st15">React JS</text>
	<g id="Layer_1_2_">
		<path class="st17" d="M1865.6,390.3c0,2.9-2.4,5.3-5.3,5.3c-2.9,0-5.3-2.4-5.3-5.3s2.4-5.3,5.3-5.3
			C1863.1,385,1865.6,387.5,1865.6,390.3z"/>
		<path class="st18" d="M1860.2,379.5c7.1,0,13.8,1,18.8,2.7c6,2.1,9.7,5.2,9.7,8.1c0,3-3.9,6.3-10.4,8.4
			c-4.9,1.6-11.3,2.5-18.1,2.5c-6.9,0-13.5-0.8-18.5-2.5c-6.3-2.1-10-5.5-10-8.4c0-2.8,3.5-5.9,9.5-8
			C1846.2,380.5,1853.1,379.5,1860.2,379.5z"/>
		<path class="st18" d="M1850.8,385c3.6-6.2,7.8-11.4,11.8-14.9c4.8-4.2,9.4-5.8,11.8-4.4c2.6,1.5,3.5,6.5,2.1,13.2
			c-1,5-3.5,11-6.9,16.9c-3.5,6-7.4,11.3-11.4,14.8c-5,4.4-9.8,5.9-12.3,4.5c-2.4-1.4-3.4-6-2.2-12.2
			C1844.8,397.7,1847.2,391.2,1850.8,385z"/>
		<path class="st18" d="M1850.8,395.8c-3.6-6.2-6-12.4-7-17.6c-1.2-6.3-0.4-11,2.1-12.5c2.6-1.5,7.4,0.2,12.5,4.8
			c3.9,3.4,7.8,8.6,11.2,14.4c3.5,6,6.1,12.1,7.1,17.2c1.3,6.5,0.2,11.4-2.3,12.9c-2.4,1.4-6.9-0.1-11.7-4.2
			C1858.8,407.5,1854.4,402,1850.8,395.8z"/>
	</g>
	<path id="rect3010" class="st7" d="M254.1,361.8c-1.6,0-3.2,0.7-4.4,1.8c-1.1,1.1-1.8,2.7-1.8,4.4v75.9c0,1.6,0.7,3.2,1.8,4.4
		c1.1,1.1,2.7,1.8,4.4,1.8h30.8c1.6,0,3.2-0.7,4.4-1.8c1.1-1.1,1.8-2.7,1.8-4.4V368c0-1.6-0.7-3.2-1.8-4.4c-1.1-1.1-2.7-1.8-4.4-1.8
		H254.1z M266.3,365.8L266.3,365.8C266.4,365.8,266.4,365.8,266.3,365.8h6.3c0.6,0,1,0.4,1,1s-0.4,1-1,1l0,0h-6.2
		c-0.6,0-1.1-0.4-1.1-1C265.3,366.5,265.7,366,266.3,365.8z M250,372h39v66.7h-39V372z M269.5,440.8c1.7,0,3.1,1.4,3.1,3.1
		c0,1.7-1.4,3.1-3.1,3.1c-1.7,0-3.1-1.4-3.1-3.1S267.8,440.8,269.5,440.8z"/>
	<text transform="matrix(1 0 0 1 1019.2975 290.5093)" class="st10 st13 st16">Blank</text>
</g>
</svg>
